<svg xmlns="http://www.w3.org/2000/svg" viewBox="0 0 414 414"><defs><style>.cls-1{fill:#e8e8e8;}.cls-2{fill:#fff;}.cls-3{fill:#173243;}.cls-4{fill:#c7845e;}.cls-5{fill:#96b360;}.cls-6{fill:#823967;}.cls-7{fill:#99477a;}.cls-8{fill:#264457;}.cls-9{fill:none;}.cls-10{fill:#b5db72;}</style></defs><title>Asset 1</title><g id="Layer_2" data-name="Layer 2"><g id="Layer_1-2" data-name="Layer 1"><polygon class="cls-1" points="30.78 91.09 160.84 23 304.52 42.26 380.11 103.5 396.55 160.11 403.12 272.32 390.44 334.77 312.48 371.77 123.28 371.77 43.68 356.37 17.64 300.5 12 140.86 30.78 91.09"/><circle class="cls-2" cx="203.77" cy="213.88" r="34.57"/><path class="cls-2" d="M348,117.85H320.68a31.13,31.13,0,0,1-31.13-31.13v-3a31.13,31.13,0,0,0-31.13-31.13H147.84A31.13,31.13,0,0,0,116.7,83.68v3a31.13,31.13,0,0,1-31.13,31.13H58.21A31.13,31.13,0,0,0,27.08,149V299.26a31.13,31.13,0,0,0,31.13,31.13H348a31.13,31.13,0,0,0,31.13-31.13V149A31.13,31.13,0,0,0,348,117.85ZM203.77,289.42a75.54,75.54,0,1,1,75.54-75.54A75.54,75.54,0,0,1,203.77,289.42Zm99.87-110.11a16.64,16.64,0,1,1,16.64-16.64A16.64,16.64,0,0,1,303.64,179.31Z"/><path class="cls-3" d="M207,294.32v-41A34.58,34.58,0,0,1,174.74,207H132.62A75.59,75.59,0,0,0,207,294.32Z"/><path class="cls-4" d="M241.82,218.78a34.57,34.57,0,0,1-34.57,34.57H207v41h.25A75.59,75.59,0,0,0,281.87,207H239.75A34.5,34.5,0,0,1,241.82,218.78Z"/><path class="cls-4" d="M382.65,207v97.16a31.13,31.13,0,0,1-31.13,31.13H207V414h81.3C357.44,414,414,357.44,414,288.3V207Z"/><circle class="cls-5" cx="307.11" cy="167.57" r="16.64"/><path class="cls-5" d="M207.25,143.24H207v41h.25A34.58,34.58,0,0,1,239.75,207h42.12A75.56,75.56,0,0,0,207.25,143.24Z"/><path class="cls-6" d="M132.62,207h42.12A34.58,34.58,0,0,1,207,184.22v-41A75.56,75.56,0,0,0,132.62,207Z"/><path class="cls-7" d="M30.56,153.89a31.13,31.13,0,0,1,31.13-31.13H89a31.13,31.13,0,0,0,31.13-31.13v-3a31.13,31.13,0,0,1,31.13-31.13H207V0H125.7C56.56,0,0,56.56,0,125.7V207H30.56Z"/><path class="cls-8" d="M30.56,304.16V207H0v81.3C0,357.44,56.56,414,125.7,414h.24L43.68,329.55A31.09,31.09,0,0,1,30.56,304.16Z"/><path class="cls-3" d="M61.69,335.29a31,31,0,0,1-18-5.74L125.93,414H207V335.29Z"/><path class="cls-9" d="M283.45,66.14l.72.71Z"/><path class="cls-5" d="M293,88.59v3a31.13,31.13,0,0,0,31.13,31.13h16.62L284.17,66.84A31,31,0,0,1,293,88.59Z"/><path class="cls-9" d="M373.2,131.55l.66.66Z"/><path class="cls-10" d="M288.3,0H207V57.46h54.9a31,31,0,0,1,21.55,8.68l-4-3.91,4,3.91.72.71,56.62,55.91h10.74a31,31,0,0,1,21.67,8.79h0l.66.66L414,172.35V125.7C414,56.56,357.44,0,288.3,0Z"/><path class="cls-5" d="M382.65,153.89V207H414V172.35l-40.14-40.14A31,31,0,0,1,382.65,153.89Z"/></g></g></svg>